<svg xmlns="http://www.w3.org/2000/svg" viewBox="0 0 800 500" style="background-color: #f4f1ea;">
  <defs>
    <pattern id="grid" width="20" height="20" patternUnits="userSpaceOnUse">
      <path d="M 20 0 L 0 0 0 20" fill="none" stroke="#d4d0c8" stroke-width="0.5"/>
    </pattern>
  </defs>
  
  <rect width="800" height="500" fill="#f4f1ea"/>
  <rect width="800" height="500" fill="url(#grid)"/>
  
  <text x="400" y="40" text-anchor="middle" font-family="'Playfair Display', serif" font-size="24" font-weight="700" fill="#1a1a1a">THE GOOGLE BACKSTOP</text>
  
  <!-- Shadowy figure (Google) -->
  <ellipse cx="200" cy="300" rx="60" ry="100" fill="#4a4a4a" opacity="0.8"/>
  <circle cx="200" cy="220" r="30" fill="#4a4a4a" opacity="0.8"/>
  
  <!-- Google G -->
  <text x="200" y="230" text-anchor="middle" font-family="'Playfair Display', serif" font-size="20" fill="#f4f1ea">G</text>
  
  <!-- Hands holding up building -->
  <path d="M 230 280 L 350 350" stroke="#4a4a4a" stroke-width="8"/>
  <path d="M 170 280 L 350 350" stroke="#4a4a4a" stroke-width="8"/>
  
  <!-- Crumbling building (AI infrastructure) -->
  <rect x="350" y="200" width="200" height="200" fill="#f4f1ea" stroke="#1a1a1a" stroke-width="2"/>
  
  <!-- Cracks -->
  <line x1="380" y1="200" x2="400" y2="250" stroke="#1a1a1a" stroke-width="1"/>
  <line x1="520" y1="200" x2="500" y2="280" stroke="#1a1a1a" stroke-width="1"/>
  <line x1="450" y1="400" x2="480" y2="350" stroke="#1a1a1a" stroke-width="1"/>
  
  <!-- AI label -->
  <text x="450" y="300" text-anchor="middle" font-family="'IM Fell English SC', serif" font-size="14" fill="#1a1a1a">AI INFRASTRUCTURE</text>
  
  <!-- Money flowing -->
  <path d="M 550 250 Q 600 200 650 250" fill="none" stroke="#1a1a1a" stroke-width="2" stroke-dasharray="5,3"/>
  <path d="M 550 300 Q 600 250 650 300" fill="none" stroke="#1a1a1a" stroke-width="2" stroke-dasharray="5,3"/>
  <path d="M 550 350 Q 600 300 650 350" fill="none" stroke="#1a1a1a" stroke-width="2" stroke-dasharray="5,3"/>
  
  <!-- Wall Street buildings -->
  <rect x="650" y="250" width="40" height="150" fill="#f4f1ea" stroke="#1a1a1a" stroke-width="1"/>
  <rect x="700" y="200" width="50" height="200" fill="#f4f1ea" stroke="#1a1a1a" stroke-width="1"/>
  <rect x="620" y="280" width="30" height="120" fill="#f4f1ea" stroke="#1a1a1a" stroke-width="1"/>
  
  <text x="675" y="240" text-anchor="middle" font-family="'Old Standard TT', serif" font-size="8" fill="#4a4a4a">WALL ST</text>
  
  <text x="400" y="460" text-anchor="middle" font-family="'Old Standard TT', serif" font-size="10" font-style="italic" fill="#4a4a4a">Follow the backstops. The real power is in the credit lines.</text>
</svg>