<svg xmlns="http://www.w3.org/2000/svg" viewBox="0 0 800 500" style="background-color: #f4f1ea;">
  <defs>
    <filter id="dissolve" x="-20%" y="-20%" width="140%" height="140%">
      <feTurbulence type="fractalNoise" baseFrequency="0.1" numOctaves="2" result="noise"/>
      <feDisplacementMap in="SourceGraphic" in2="noise" scale="5" xChannelSelector="R" yChannelSelector="G"/>
    </filter>
    
    <marker id="transformArrow" markerWidth="10" markerHeight="10" refX="9" refY="3" orient="auto" markerUnits="strokeWidth">
      <path d="M0,0 L0,6 L9,3 z" fill="#1a1a1a"/>
    </marker>
  </defs>
  
  <!-- Background -->
  <rect width="800" height="500" fill="#f4f1ea"/>
  
  <!-- Title -->
  <text x="400" y="35" text-anchor="middle" font-family="'Playfair Display', serif" font-size="22" font-weight="700" fill="#1a1a1a" letter-spacing="0.05em">THE INTERFACE IS DEAD</text>
  <text x="400" y="55" text-anchor="middle" font-family="'Old Standard TT', serif" font-size="12" font-style="italic" fill="#4a4a4a">From bank buildings to API calls: the disappearance of financial intermediaries</text>
  
  
  <!-- LEFT: Traditional Banking (Fading) -->
  <g opacity="0.7">
    <!-- Bank Building -->
    <rect x="80" y="120" width="180" height="140" fill="#f4f1ea" stroke="#1a1a1a" stroke-width="2"/>
    
    <!-- Columns -->
    <rect x="95" y="140" width="15" height="100" fill="#f4f1ea" stroke="#1a1a1a" stroke-width="1.5"/>
    <rect x="125" y="140" width="15" height="100" fill="#f4f1ea" stroke="#1a1a1a" stroke-width="1.5"/>
    <rect x="155" y="140" width="15" height="100" fill="#f4f1ea" stroke="#1a1a1a" stroke-width="1.5"/>
    <rect x="185" y="140" width="15" height="100" fill="#f4f1ea" stroke="#1a1a1a" stroke-width="1.5"/>
    <rect x="215" y="140" width="15" height="100" fill="#f4f1ea" stroke="#1a1a1a" stroke-width="1.5"/>
    
    <!-- Capitals -->
    <rect x="92" y="135" width="21" height="8" fill="#f4f1ea" stroke="#1a1a1a" stroke-width="1"/>
    <rect x="122" y="135" width="21" height="8" fill="#f4f1ea" stroke="#1a1a1a" stroke-width="1"/>
    <rect x="152" y="135" width="21" height="8" fill="#f4f1ea" stroke="#1a1a1a" stroke-width="1"/>
    <rect x="182" y="135" width="21" height="8" fill="#f4f1ea" stroke="#1a1a1a" stroke-width="1"/>
    <rect x="212" y="135" width="21" height="8" fill="#f4f1ea" stroke="#1a1a1a" stroke-width="1"/>
    
    <!-- Pediment -->
    <path d="M 80 135 L 170 100 L 260 135 Z" fill="#f4f1ea" stroke="#1a1a1a" stroke-width="2"/>
    
    <!-- Bank sign -->
    <rect x="140" y="115" width="60" height="15" fill="#1a1a1a"/>
    <text x="170" y="126" text-anchor="middle" font-family="'IM Fell English SC', serif" font-size="8" fill="#f4f1ea">BANK</text>
    
    <!-- Steps -->
    <rect x="90" y="240" width="160" height="8" fill="#f4f1ea" stroke="#1a1a1a" stroke-width="1"/>
    <rect x="85" y="248" width="170" height="8" fill="#f4f1ea" stroke="#1a1a1a" stroke-width="1"/>
  </g>
  
  <!-- Teller Windows (inside) -->
  <g opacity="0.5">
    <rect x="100" y="280" width="50" height="40" fill="#f4f1ea" stroke="#1a1a1a" stroke-width="1"/>
    <line x1="100" y1="300" x2="150" y2="300" stroke="#1a1a1a" stroke-width="0.5"/>
    <circle cx="125" cy="290" r="5" fill="#1a1a1a"/>
    
    <rect x="190" y="280" width="50" height="40" fill="#f4f1ea" stroke="#1a1a1a" stroke-width="1"/>
    <line x1="190" y1="300" x2="240" y2="300" stroke="#1a1a1a" stroke-width="0.5"/>
    <circle cx="215" cy="290" r="5" fill="#1a1a1a"/>
  </g
>
  
  <!-- Dissolving pixels effect -->
  <g opacity="0.3">
    <rect x="70" y="110" width="10" height="10" fill="#1a1a1a"/>
    <rect x="260" y="120" width="8" height="8" fill="#1a1a1a"/>
    <rect x="75" y="260" width="12" height="12" fill="#1a1a1a"/>
    <rect x="250" y="270" width="10" height="10" fill="#1a1a1a"/>
    <rect x="60" y="180" width="8" height="8" fill="#1a1a1a"/>
    <rect x="270" y="200" width="10" height="10" fill="#1a1a1a"/>
  </g>
  
  
  <!-- CENTER: Transformation Zone -->
  <!-- Breaking apart effect -->
  <g opacity="0.4">
    <rect x="300" y="150" width="20" height="20" fill="#f4f1ea" stroke="#1a1a1a" stroke-width="1" transform="rotate(15 310 160)"/>
    <rect x="330" y="180" width="15" height="15" fill="#f4f1ea" stroke="#1a1a1a" stroke-width="1" transform="rotate(-20 337 187)"/>
    <rect x="350" y="140" width="18" height="18" fill="#f4f1ea" stroke="#1a1a1a" stroke-width="1" transform="rotate(25 359 149)"/>
    <rect x="320" y="220" width="12" height="12" fill="#f4f1ea" stroke="#1a1a1a" stroke-width="1" transform="rotate(-10 326 226)"/>
    <rect x="370" y="200" width="16" height="16" fill="#f4f1ea" stroke="#1a1a1a" stroke-width="1" transform="rotate(30 378 208)"/>
    <rect x="340" y="250" width="14" height="14" fill="#f4f1ea" stroke="#1a1a1a" stroke-width="1" transform="rotate(-15 347 257)"/>
  </g>
  
  <!-- Arrow showing transformation -->
  <path d="M 280 200 Q 350 180 420 200" fill="none" stroke="#1a1a1a" stroke-width="2" stroke-dasharray="8,4" marker-end="url(#transformArrow)"/>
  
  <text x="350" y="170" text-anchor="middle" font-family="'Old Standard TT', serif" font-size="10" fill="#4a4a4a">Dissolving...</text>
  
  
  <!-- RIGHT: AI Agent (Emerging) -->
  <!-- Agent silhouette -->
  <ellipse cx="580" cy="200" rx="60" ry="80" fill="#f4f1ea" stroke="#1a1a1a" stroke-width="2"/>
  
  <!-- Agent head -->
  <rect x="555" y="140" width="50" height="45" rx="5" fill="#f4f1ea" stroke="#1a1a1a" stroke-width="2"/>
  
  <!-- Agent eyes (glowing) -->
  <rect x="565" y="155" width="12" height="8" fill="#1a1a1a"/>
  <rect x="583" y="155" width="12" height="8" fill="#1a1a1a"/>
  
  <!-- Agent body -->
  <rect x="560" y="195" width="40" height="50" rx="3" fill="#f4f1ea" stroke="#1a1a1a" stroke-width="2"/>
  
  <!-- Chest panel with API symbol -->
  <rect x="568" y="210" width="24" height="20" fill="#1a1a1a"/>
  <text x="580" y="224" text-anchor="middle" font-family="'IM Fell English SC', serif" font-size="8" fill="#f4f1ea">API</text>
  
  
  <!-- API Connection Lines -->
  <!-- Horizontal connection lines -->
  <line x1="520" y1="170" x2="480" y2="150" stroke="#1a1a1a" stroke-width="1"/>
  <line x1="520" y1="190" x2="480" y2="190" stroke="#1a1a1a" stroke-width="1"/>
  <line x1="520" y1="210" x2="480" y2="230" stroke="#1a1a1a" stroke-width="1"/>
  
  <!-- Connection nodes -->
  <circle cx="470" cy="150" r="4" fill="#1a1a1a"/>
  <circle cx="470" cy="190" r="4" fill="#1a1a1a"/>
  <circle cx="470" cy="230" r="4" fill="#1a1a1a"/>
  
  <!-- Vertical connection line -->
  <line x1="470" y1="150" x2="470" y2="230" stroke="#1a1a1a" stroke-width="1"/>
  
  
  <!-- Labels -->
  <text x="170" y="360" text-anchor="middle" font-family="'IM Fell English SC', serif" font-size="12" fill="#4a4a4a" letter-spacing="0.05em">TRADITIONAL</text>
  
  <text x="170" y="378" text-anchor="middle" font-family="'Old Standard TT', serif" font-size="10" fill="#4a4a4a">Bank Buildings · Teller Windows · Forms</text>
  
  <text x="580" y="320" text-anchor="middle" font-family="'IM Fell English SC', serif" font-size="12" fill="#1a1a1a" letter-spacing="0.05em">AGENTIC</text>
  
  <text x="580" y="338" text-anchor="middle" font-family="'Old Standard TT', serif" font-size="10" fill="#1a1a1a">AI Agents · API Calls · Autonomous Transactions</text>
  
  
  <!-- Bottom: The Trust Problem -->
  <rect x="100" y="390" width="600" height="80" fill="none" stroke="#1a1a1a" stroke-width="1"/>
  
  <text x="400" y="415" text-anchor="middle" font-family="'Playfair Display', serif" font-size="14" font-weight="700" fill="#1a1a1a">THE TRUST PROBLEM REMAINS</text>
  
  <text x="400" y="440" text-anchor="middle" font-family="'Old Standard TT', serif" font-size="10" fill="#2d2d2d">When your financial advisor is an API call, who audits the algorithm?</text>
  
  <text x="400" y="458" text-anchor="middle" font-family="'Old Standard TT', serif" font-size="10" fill="#4a4a4a">Who's liable when the agent makes a mistake?</text>
  
  
  <!-- Caption -->
  <text x="400" y="490" text-anchor="middle" font-family="'Old Standard TT', serif" font-size="10" font-style="italic" fill="#4a4a4a">Fig. 5 — The interface disappears, but the trust problem remains.</text>
  
  
  <!-- Decorative frame -->
  <rect x="15" y="15" width="770" height="470" fill="none" stroke="#1a1a1a" stroke-width="1"/>
  
  <rect x="20" y="20" width="760" height="460" fill="none" stroke="#1a1a1a" stroke-width="0.5"/>
</svg>