<svg xmlns="http://www.w3.org/2000/svg" viewBox="0 0 800 500">
  <defs>
    <!-- Sepia gradient -->
    <linearGradient id="bgGrad" x1="0%" y1="0%" x2="100%" y2="100%">
      <stop offset="0%" style="stop-color:#f5e6d3"/>
      <stop offset="100%" style="stop-color:#d4c4a8"/>
    </linearGradient>
    <!-- Paper texture -->
    <pattern id="paperTexture" x="0" y="0" width="100" height="100" patternUnits="userSpaceOnUse">
      <rect width="100" height="100" fill="#f5e6d3"/>
      <circle cx="15" cy="25" r="0.5" fill="#c9b896" opacity="0.3"/>
      <circle cx="45" cy="15" r="0.7" fill="#c9b896" opacity="0.2"/>
      <circle cx="75" cy="45" r="0.4" fill="#c9b896" opacity="0.25"/>
      <circle cx="25" cy="65" r="0.6" fill="#c9b896" opacity="0.2"/>
      <circle cx="55" y="85" r="0.5" fill="#c9b896" opacity="0.3"/>
      <circle cx="85" cy="75" r="0.3" fill="#c9b896" opacity="0.2"/>
    </pattern>
    <!-- Building gradient -->
    <linearGradient id="buildingGrad" x1="0%" y1="0%" x2="100%" y2="0%">
      <stop offset="0%" style="stop-color:#c9b896"/>
      <stop offset="50%" style="stop-color:#e8dcc8"/>
      <stop offset="100%" style="stop-color:#b8a080"/>
    </linearGradient>
  </defs>
  
  <!-- Background -->
  <rect width="800" height="500" fill="url(#paperTexture)"/>
  
  <!-- Decorative border -->
  <rect x="15" y="15" width="770" height="470" fill="none" stroke="#5c4a32" stroke-width="3"/>
  <rect x="22" y="22" width="756" height="456" fill="none" stroke="#8b7355" stroke-width="1"/>
  
  <!-- Title -->
  <text x="400" y="55" font-family="Georgia, serif" font-size="28" font-weight="bold" fill="#3d2f1f" text-anchor="middle">NINETY DAYS</text>
  <line x1="250" y1="65" x2="550" y2="65" stroke="#5c4a32" stroke-width="2"/>
  <text x="400" y="85" font-family="Georgia, serif" font-size="14" fill="#6b5a45" text-anchor="middle" font-style="italic">The Steinberger Interregnum Begins at OpenAI</text>
  
  <!-- OpenAI Building Sketch (Art Deco style) -->
  <g transform="translate(400, 280)">
    <!-- Main building structure -->
    <rect x="-120" y="-150" width="240" height="200" fill="url(#buildingGrad)" stroke="#5c4a32" stroke-width="2"/>
    
    <!-- Art Deco setbacks -->
    <rect x="-100" y="-170" width="200" height="20" fill="#d4c4a8" stroke="#5c4a32" stroke-width="1.5"/>
    <rect x="-80" y="-185" width="160" height="15" fill="#e8dcc8" stroke="#5c4a32" stroke-width="1.5"/>
    <rect x="-60" y="-195" width="120" height="10" fill="#f0e6d2" stroke="#5c4a32" stroke-width="1"/>
    
    <!-- Vertical lines (Art Deco detailing) -->
    <line x1="-80" y1="-150" x2="-80" y2="50" stroke="#8b7355" stroke-width="1"/>
    <line x1="-40" y1="-150" x2="-40" y2="50" stroke="#8b7355" stroke-width="1"/>
    <line x1="0" y1="-150" x2="0" y2="50" stroke="#8b7355" stroke-width="1"/>
    <line x1="40" y1="-150" x2="40" y2="50" stroke="#8b7355" stroke-width="1"/>
    <line x1="80" y1="-150" x2="80" y2="50" stroke="#8b7355" stroke-width="1"/>
    
    <!-- Windows -->
    <g fill="#5c4a32" opacity="0.6">
      <rect x="-110" y="-130" width="20" height="30" rx="1"/>
      <rect x="-70" y="-130" width="20" height="30" rx="1"/>
      <rect x="-30" y="-130" width="20" height="30" rx="1"/>
      <rect x="10" y="-130" width="20" height="30" rx="1"/>
      <rect x="50" y="-130" width="20" height="30" rx="1"/>
      <rect x="90" y="-130" width="20" height="30" rx="1"/>
      
      <rect x="-110" y="-80" width="20" height="30" rx="1"/>
      <rect x="-70" y="-80" width="20" height="30" rx="1"/>
      <rect x="-30" y="-80" width="20" height="30" rx="1"/>
      <rect x="10" y="-80" width="20" height="30" rx="1"/>
      <rect x="50" y="-80" width="20" height="30" rx="1"/>
      <rect x="90" y="-80" width="20" height="30" rx="1"/>
      
      <rect x="-110" y="-30" width="20" height="30" rx="1"/>
      <rect x="-70" y="-30" width="20" height="30" rx="1"/>
      <rect x="-30" y="-30" width="20" height="30" rx="1"/>
      <rect x="10" y="-30" width="20" height="30" rx="1"/>
      <rect x="50" y="-30" width="20" height="30" rx="1"/>
      <rect x="90" y="-30" width="20" height="30" rx="1"/>
    </g>
    
    <!-- Entrance -->
    <rect x="-30" y="20" width="60" height="30" fill="#5c4a32" opacity="0.3"/>
    <path d="M-25,50 L-25,25 Q0,15 25,25 L25,50 Z" fill="#8b7355" stroke="#5c4a32" stroke-width="1"/>
    
    <!-- OpenAI logo hint (stylized) -->
    <g transform="translate(0, -90)">
      <hexagon points="0,-15 13,-7 13,8 0,16 -13,8 -13,-7" fill="none" stroke="#5c4a32" stroke-width="1.5"/>
      <circle cx="0" cy="0" r="8" fill="none" stroke="#5c4a32" stroke-width="1"/>
    </g>
  </g>
  
  <!-- Timeline -->
  <g transform="translate(100, 420)">
    <!-- Timeline bar -->
    <line x1="0" y1="0" x2="600" y2="0" stroke="#5c4a32" stroke-width="3"/>
    
    <!-- Day 0 marker -->
    <circle cx="0" cy="0" r="8" fill="#d4af37" stroke="#8b6914" stroke-width="2"/>
    <text x="0" y="25" font-family="Georgia, serif" font-size="11" fill="#5c4a32" text-anchor="middle" font-weight="bold">DAY 1</text>
    <text x="0" y="38" font-family="Georgia, serif" font-size="9" fill="#8b7355" text-anchor="middle">Arrival</text>
    
    <!-- Day 30 marker -->
    <circle cx="200" cy="0" r="6" fill="#c9a86c" stroke="#5c4a32" stroke-width="1.5"/>
    <text x="200" y="25" font-family="Georgia, serif" font-size="10" fill="#5c4a32" text-anchor="middle">DAY 30</text>
    <text x="200" y="37" font-family="Georgia, serif" font-size="8" fill="#8b7355" text-anchor="middle">Assessment</text>
    
    <!-- Day 60 marker -->
    <circle cx="400" cy="0" r="6" fill="#c9a86c" stroke="#5c4a32" stroke-width="1.5"/>
    <text x="400" y="25" font-family="Georgia, serif" font-size="10" fill="#5c4a32" text-anchor="middle">DAY 60</text>
    <text x="400" y="37" font-family="Georgia, serif" font-size="8" fill="#8b7355" text-anchor="middle">Strategy</text>
    
    <!-- Day 90 marker -->
    <circle cx="600" cy="0" r="8" fill="#d4af37" stroke="#8b6914" stroke-width="2"/>
    <text x="600" y="25" font-family="Georgia, serif" font-size="11" fill="#5c4a32" text-anchor="middle" font-weight="bold">DAY 90</text>
    <text x="600" y="38" font-family="Georgia, serif" font-size="9" fill="#8b7355" text-anchor="middle">Decision</text>
    
    <!-- Question mark above timeline -->
    <text x="300" y="-25" font-family="Georgia, serif" font-size="24" fill="#8b7355" text-anchor="middle" font-weight="bold">?</text>
  </g>
  
  <!-- Side decorative elements -->
  <g fill="none" stroke="#5c4a32" stroke-width="1.5">
    <path d="M30,30 L60,30 L60,60"/>
    <path d="M770,30 L740,30 L740,60"/>
    <path d="M30,470 L60,470 L60,440"/>
    <path d="M770,470 L740,470 L740,440"/>
  </g>
  
  <!-- Caption -->
  <text x="400" y="115" font-family="Georgia, serif" font-size="11" fill="#6b5a45" text-anchor="middle">The corner office awaits. The clock ticks. Three months to reshape the future of artificial intelligence.</text>
  
  <!-- Newspaper footer -->
  <text x="400" y="485" font-family="Georgia, serif" font-size="10" fill="#8b7355" text-anchor="middle">GITSHIP NEWS • BUSINESS EDITION • 1920s STYLE ILLUSTRATION</text>
</svg>