<svg xmlns="http://www.w3.org/2000/svg" viewBox="0 0 800 420" style="background-color: #f4f1ea;">
  <defs>
    <marker id="arrowRight" markerWidth="10" markerHeight="10" refX="9" refY="3" orient="auto" markerUnits="strokeWidth">
      <path d="M0,0 L0,6 L9,3 z" fill="#1a1a1a"/>
    </marker>
  </defs>
  
  <!-- Background -->
  <rect width="800" height="420" fill="#f4f1ea"/>
  
  <!-- Title -->
  <text x="400" y="35" text-anchor="middle" font-family="'Playfair Display', serif" font-size="22" font-weight="700" fill="#1a1a1a" letter-spacing="0.05em">THE JOURNEY: PSPDFKIT TO OPENAI</text>
  <text x="400" y="55" text-anchor="middle" font-family="'Old Standard TT', serif" font-size="12" font-style="italic" fill="#4a4a4a">Peter Steinberger's path from PDF SDKs to agentic AI</text>
  
  
  <!-- Timeline Base -->
  <line x1="80" y1="200" x2="720" y2="200" stroke="#1a1a1a" stroke-width="3"/>
  
  
  <!-- Station 1: PSPDFKit -->
  <circle cx="120" cy="200" r="15" fill="#1a1a1a" stroke="#1a1a1a" stroke-width="2"/>
  <circle cx="120" cy="200" r="8" fill="#f4f1ea"/>
  
  <!-- Station 1 Box -->
  <rect x="50" y="80" width="140" height="90" fill="#f4f1ea" stroke="#1a1a1a" stroke-width="2"/>
  
  <text x="120" y="105" text-anchor="middle" font-family="'IM Fell English SC', serif" font-size="12" fill="#1a1a1a" letter-spacing="0.1em">PSPDFKIT</text>
  
  <line x1="60" y1="115" x2="180" y2="115" stroke="#1a1a1a" stroke-width="0.5"/>
  
  <text x="120" y="135" text-anchor="middle" font-family="'Old Standard TT', serif" font-size="9" fill="#2d2d2d">PDF SDK Company</text>
  <text x="120" y="150" text-anchor="middle" font-family="'Old Standard TT', serif" font-size="9" fill="#4a4a4a">Exit: 9 figures</text>
  
  <!-- Document icon -->
  <rect x="105" y="235" width="30" height="40" fill="#f4f1ea" stroke="#1a1a1a" stroke-width="1.5"/>
  <path d="M 110 245 L 130 245" stroke="#1a1a1a" stroke-width="1"/>
  <path d="M 110 255 L 130 255" stroke="#1a1a1a" stroke-width="1"/>
  <path d="M 110 265 L 125 265" stroke="#1a1a1a" stroke-width="1"/>
  
  <!-- Date -->
  <text x="120" y="300" text-anchor="middle" font-family="'Old Standard TT', serif" font-size="10" fill="#4a4a4a">~2021</text>
  
  
  <!-- Station 2: The Wilderness -->
  <circle cx="280" cy="200" r="12" fill="#f4f1ea" stroke="#1a1a1a" stroke-width="2"/>
  <circle cx="280" cy="200" r="5" fill="#1a1a1a"/>
  
  <!-- Station 2 Box -->
  <rect x="210" y="80" width="140" height="90" fill="#f4f1ea" stroke="#1a1a1a" stroke-width="2" stroke-dasharray="4,2"/>
  
  <text x="280" y="105" text-anchor="middle" font-family="'IM Fell English SC', serif" font-size="12" fill="#1a1a1a" letter-spacing="0.1em">THE WILDERNESS</text>
  
  <line x1="220" y1="115" x2="340" y2="115" stroke="#1a1a1a" stroke-width="0.5"/>
  
  <text x="280" y="135" text-anchor="middle" font-family="'Old Standard TT', serif" font-size="9" fill="#2d2d2d">3 Years of</text>
  <text x="280" y="150" text-anchor="middle" font-family="'Old Standard TT', serif" font-size="9" fill="#2d2d2d">Existential Questioning</text>
  
  <!-- Question mark -->
  <text x="280" y="245" text-anchor="middle" font-family="'Playfair Display', serif" font-size="30" fill="#4a4a4a">?</text>
  
  <!-- Date -->
  <text x="280" y="300" text-anchor="middle" font-family="'Old Standard TT', serif" font-size="10" fill="#4a4a4a">2021-2024</text>
  
  
  <!-- Station 3: OpenClaw -->
  <circle cx="440" cy="200" r="15" fill="#1a1a1a" stroke="#1a1a1a" stroke-width="2"/>
  <circle cx="440" cy="200" r="8" fill="#f4f1ea"/>
  
  <!-- Station 3 Box -->
  <rect x="370" y="80" width="140" height="90" fill="#f4f1ea" stroke="#1a1a1a" stroke-width="2"/>
  
  <text x="440" y="105" text-anchor="middle" font-family="'IM Fell English SC', serif" font-size="12" fill="#1a1a1a" letter-spacing="0.1em">OPENCLAW</text>
  
  <line x1="380" y1="115" x2="500" y2="115" stroke="#1a1a1a" stroke-width="0.5"/>
  
  <text x="440" y="135" text-anchor="middle" font-family="'Old Standard TT', serif" font-size="9" fill="#2d2d2d">Viral Launch: Jan 2026</text>
  <text x="440" y="150" text-anchor="middle" font-family="'Old Standard TT', serif" font-size="9" fill="#4a4a4a">1.5M agents · $20K/mo burn</text>
  
  <!-- Claw marks -->
  <path d="M 425 240 Q 428 260 425 280" fill="none" stroke="#1a1a1a" stroke-width="2"/>
  <path d="M 440 235 Q 443 260 440 285" fill="none" stroke="#1a1a1a" stroke-width="2"/>
  <path d="M 455 240 Q 458 260 455 280" fill="none" stroke="#1a1a1a" stroke-width="2"/>
  
  <!-- Date -->
  <text x="440" y="300" text-anchor="middle" font-family="'Old Standard TT', serif" font-size="10" fill="#4a4a4a">Jan 2026</text>
  
  
  <!-- Station 4: OpenAI -->
  <circle cx="600" cy="200" r="15" fill="#1a1a1a" stroke="#1a1a1a" stroke-width="2"/>
  <circle cx="600" cy="200" r="8" fill="#f4f1ea"/>
  
  <!-- Station 4 Box -->
  <rect x="530" y="80" width="140" height="90" fill="#1a1a1a" stroke="#1a1a1a" stroke-width="2"/>
  
  <text x="600" y="105" text-anchor="middle" font-family="'IM Fell English SC', serif" font-size="12" fill="#f4f1ea" letter-spacing="0.1em">OPENAI</text>
  
  <line x1="540" y1="115" x2="660" y2="115" stroke="#f4f1ea" stroke-width="0.5"/>
  
  <text x="600" y="135" text-anchor="middle" font-family="'Old Standard TT', serif" font-size="9" fill="#f4f1ea">Hired: Feb 2026</text>
  <text x="600" y="150" text-anchor="middle" font-family="'Old Standard TT', serif" font-size="9" fill="#d4d0c8">Codex Team · Agentic Ventures</text>
  
  <!-- OpenAI spiral -->
  <path d="M 590 250 Q 600 240 610 250 Q 620 270 600 280 Q 575 285 575 260 Q 575 230 610 235" fill="none" stroke="#1a1a1a" stroke-width="2"/>
  
  <!-- Date -->
  <text x="600" y="300" text-anchor="middle" font-family="'Old Standard TT', serif" font-size="10" fill="#4a4a4a">Feb 2026</text>
  
  
  <!-- Station 5: The Future -->
  <circle cx="680" cy="200" r="10" fill="#f4f1ea" stroke="#1a1a1a" stroke-width="2" stroke-dasharray="3,2"/>
  
  <!-- Station 5 Label -->
  <text x="680" y="250" text-anchor="middle" font-family="'Old Standard TT', serif" font-size="9" fill="#4a4a4a">Agentic</text>
  <text x="680" y="263" text-anchor="middle" font-family="'Old Standard TT', serif" font-size="9" fill="#4a4a4a">Future</text>
  
  
  <!-- Milestone Markers on Timeline -->
  <line x1="120" y1="185" x2="120" y2="215" stroke="#1a1a1a" stroke-width="2"/>
  <line x1="280" y1="190" x2="280" y2="210" stroke="#1a1a1a" stroke-width="1"/>
  <line x1="440" y1="185" x2="440" y2="215" stroke="#1a1a1a" stroke-width="2"/>
  <line x1="600" y1="185" x2="600" y2="215" stroke="#1a1a1a" stroke-width="2"/>
  
  
  <!-- Journey Path Style -->
  <!-- Railway ties -->
  <line x1="140" y1="196" x2="140" y2="204" stroke="#4a4a4a" stroke-width="1"/>
  <line x1="160" y1="196" x2="160" y2="204" stroke="#4a4a4a" stroke-width="1"/>
  <line x1="180" y1="196" x2="180" y2="204" stroke="#4a4a4a" stroke-width="1"/>
  <line x1="200" y1="196" x2="200" y2="204" stroke="#4a4a4a" stroke-width="1"/>
  <line x1="220" y1="196" x2="220" y2="204" stroke="#4a4a4a" stroke-width="1"/>
  <line x1="240" y1="196" x2="240" y2="204" stroke="#4a4a4a" stroke-width="1"/>
  <line x1="260" y1="196" x2="260" y2="204" stroke="#4a4a4a" stroke-width="1"/>
  
  <line x1="300" y1="196" x2="300" y2="204" stroke="#4a4a4a" stroke-width="1"/>
  <line x1="320" y1="196" x2="320" y2="204" stroke="#4a4a4a" stroke-width="1"/>
  <line x1="340" y1="196" x2="340" y2="204" stroke="#4a4a4a" stroke-width="1"/>
  <line x1="360" y1="196" x2="360" y2="204" stroke="#4a4a4a" stroke-width="1"/>
  <line x1="380" y1="196" x2="380" y2="204" stroke="#4a4a4a" stroke-width="1"/>
  <line x1="400" y1="196" x2="400" y2="204" stroke="#4a4a4a" stroke-width="1"/>
  <line x1="420" y1="196" x2="420" y2="204" stroke="#4a4a4a" stroke-width="1"/>
  
  <line x1="460" y1="196" x2="460" y2="204" stroke="#4a4a4a" stroke-width="1"/>
  <line x1="480" y1="196" x2="480" y2="204" stroke="#4a4a4a" stroke-width="1"/>
  <line x1="500" y1="196" x2="500" y2="204" stroke="#4a4a4a" stroke-width="1"/>
  <line x1="520" y1="196" x2="520" y2="204" stroke="#4a4a4a" stroke-width="1"/>
  <line x1="540" y1="196" x2="540" y2="204" stroke="#4a4a4a" stroke-width="1"/>
  <line x1="560" y1="196" x2="560" y2="204" stroke="#4a4a4a" stroke-width="1"/>
  <line x1="580" y1="196" x2="580" y2="204" stroke="#4a4a4a" stroke-width="1"/>
  
  <line x1="620" y1="196" x2="620" y2="204" stroke="#4a4a4a" stroke-width="1"/>
  <line x1="640" y1="196" x2="640" y2="204" stroke="#4a4a4a" stroke-width="1"/>
  <line x1="660" y1="196" x2="660" y2="204" stroke="#4a4a4a" stroke-width="1"/>
  
  
  <!-- Quote at bottom -->
  <rect x="150" y="330" width="500" height="60" fill="none" stroke="#1a1a1a" stroke-width="1"/>
  
  <text x="400" y="355" text-anchor="middle" font-family="'Old Standard TT', serif" font-size="14" font-style="italic" fill="#2d2d2d">"Teaming up with OpenAI is the fastest way to bring this to everyone."</text>
  
  <text x="400" y="378" text-anchor="middle" font-family="'Old Standard TT', serif" font-size="10" fill="#4a4a4a">— Peter Steinberger, February 2026</text>
  
  
  <!-- Caption -->
  <text x="400" y="410" text-anchor="middle" font-family="'Old Standard TT', serif" font-size="10" font-style="italic" fill="#4a4a4a">Fig. 4 — From PDF SDKs to agentic AI: one developer's journey to change the world.</text>
  
  
  <!-- Decorative corners -->
  <path d="M 30 30 L 50 30 L 50 50" fill="none" stroke="#1a1a1a" stroke-width="1"/>
  <path d="M 770 30 L 750 30 L 750 50" fill="none" stroke="#1a1a1a" stroke-width="1"/>
  <path d="M 30 390 L 50 390 L 50 370" fill="none" stroke="#1a1a1a" stroke-width="1"/>
  <path d="M 770 390 L 750 390 L 750 370" fill="none" stroke="#1a1a1a" stroke-width="1"/>
</svg>